<?xml version="1.0" encoding="UTF-8"?>
<svg id="Layer_2" data-name="Layer 2" xmlns="http://www.w3.org/2000/svg" viewBox="0 0 56.2024445933 41.3595394539">
  <defs>
    <style>
      .cls-1 {
        fill: #4d6bfe;
      }
    </style>
  </defs>
  <g id="Layer_1-2" data-name="Layer 1">
    <path class="cls-1" d="M55.6128045679,3.4713320341c-.5952987671-.2916998863-.8516998291.2641999722-1.199798584.546599865-.1190986633.0911002159-.2197990417.209499836-.3205986023.3187999725-.870098114.9292001724-1.8866996765,1.5398001671-3.2148017883,1.4668002129-1.9416999817-.1093997955-3.5994987488.5012001991-5.0649986267,1.9862999916-.3114013672-1.8313002586-1.3462982178-2.9247999191-2.9216995239-3.6262001991-.8241996765-.3645000458-1.657699585-.7290000916-2.2347984314-1.5216999054-.4029998779-.5647001266-.5129013062-1.1934000254-.7144012451-1.8129999638-.1282997131-.3734999895-.2565002441-.7562999725-.6870002747-.8201000094-.4670982361-.072800003-.6502990723.3188000023-.8334999084.6470000148-.7327003479,1.339400053-1.0166015625,2.8153998852-.989200592,4.309599638.0640983582,3.3620996475,1.4837989807,6.040599823,4.3046989441,7.9449005127.3205986023.2187004089.4029998779.4371995926.3022994995.7562999725-.192401886.6560001373-.4213981628,1.2937002182-.6227989197,1.9497003555-.1282997131.4191999435-.3207015991.5103006363-.7694015503.3278999329-1.5479011536-.6466999054-2.8852005005-1.6035003662-4.0666999817-2.7604999542-2.0057983398-1.9406995773-3.8193016052-4.0817995071-6.0815010071-5.7582998276-.5312004089-.3917999268-1.0625-.7561001778-1.6121006012-1.1024999619-2.3080997467-2.2411999702.3022994995-4.081799984.9067993164-4.3003001213.6319007874-.2278000116.2198009491-1.011500001-1.8227005005-1.0022000074-2.0424995422.0089999437-3.910900116.6923999786-6.2922000885,1.6035000086-.3479995728.1366999149-.7145004272.2367999554-1.0900001526.3187999725-2.1614990234-.40989995-4.405500412-.5011999607-6.7502002716-.2367999554-4.4146995544.4918999672-7.94080019,2.578400135-10.5327997208,6.140900135C.1914039761,13.129031619-.541296029,17.9942326154.3563039661,23.069231471c.9434000254,5.3481006622,3.6726998091,9.7761001587,7.8675998449,13.2384986877,4.3505992889,3.5895996094,9.3605995178,5.3480987549,15.075799942,5.0110015869,3.4713001251-.2004013062,7.3364009857-.6650009155,11.696100235-4.3549995422,1.0989990234.5466995239,2.2531013489.7652015686,4.1674003601.9291992188,1.4746017456.1366996765,2.8942985535-.0727996826,3.9933013916-.3004989624,1.7219009399-.3644981384,1.6029014587-1.9589996338.9800987244-2.2504997253-5.0466003418-2.3506011963-3.9384994507-1.3940010071-4.9458999634-2.1684989929,2.5644989014-3.0338993073,6.4296989441-6.1865005493,7.9408988953-16.400100708.1189994812-.8107995987.0182991028-1.321100235,0-1.9771003723-.0092010498-.4007997513.0824012756-.5556001663.5404014587-.6013002396,1.2639007568-.1457996368,2.4911994934-.491900444,3.6178016663-1.1114997864,3.2697982788-1.7856998444,4.5886001587-4.7195005417,4.9000015259-8.2363996506.0458984375-.5376000404-.0091018677-1.0935001373-.577003479-1.3757009506ZM27.1190034509,35.1231331434c-4.8908996582-3.8446998596-7.2630004883-5.1112995148-8.2430992126-5.0566005707-.9158992767.0547008514-.7509994507,1.1024990082-.5496006012,1.785900116.2106990814.6741008759.4855003357,1.1388988495.8701000214,1.7310009003.2656002045.3917999268.4489002228.9748001099-.265499115,1.4123001099-1.5753993988.974899292-4.3140001297-.3280982971-4.4422998428-.3917999268-3.1871995926-1.8769989014-5.8524999619-4.3553009033-7.7301998138-7.7444000244-1.8134999275-3.2620010376-2.866699934-6.7604999542-3.0408000946-10.4961013794-.0457999706-.9019002914.2197999954-1.2209997177,1.1174001694-1.3847999573,1.181499958-.2187004089,2.3997001648-.2644004822,3.581199646-.0913000107,4.9918003082.7290000916,9.2414989471,2.9611997604,12.8043003082,6.4963006973,2.0333003998,2.0135002136,3.5720005035,4.4190006256,5.1566009521,6.7695999146,1.6851997375,2.4962997437,3.4986991882,4.8744983673,5.8068008423,6.8242015839.8151016235.6833000183,1.4654006958,1.2025985718,2.0881996155,1.5853996277-1.8774986267.2094993591-5.0100002289.2551994324-7.1532001495-1.4397010803h.0000972748ZM29.4637033105,20.044332942c0-.4008998871.3206005096-.7196998596.7236995697-.7196998596.0916004181,0,.1739997864.017999649.2472991943.04529953.1007995605.0366001129.1923999786.091299057.2656002045.1730995178.1282997131.1277008057.201499939.3097991943.201499939.5011997223,0,.4008998871-.3204994202.7196998596-.723400116.7196998596s-.7145004272-.3187999725-.7145004272-.7196998596l-.0001983643.0001010895ZM36.7452050806,23.7799324598c-.4670982361.191400528-.9342002869.3551998138-1.3829994202.373500824-.6960983276.0363998413-1.4562988281-.246099472-1.8684005737-.592300415-.6411018372-.5375995636-1.0990982056-.8381004333-1.2914009094-1.776599884-.0825004578-.4008998871-.0367012024-1.0205001831.0367012024-1.3756999969.1647987366-.7653999329-.0183982849-1.2572994232-.5587005615-1.7038993835-.439699173-.3645000458-.9983997345-.4645996094-1.6121006012-.4645996094-.2290000916,0-.4395008087-.1002998352-.5953006744-.1823005676-.2565002441-.1275005341-.466999054-.4463996887-.2656002045-.8381996155.0641002655-.1273994446.3756008148-.4372997284.4489002228-.4918994904.8334999084-.4738998413,1.7952003479-.3188991547,2.6836013794.0363998413.8244018555.3370990753,1.4472007751.9566993713,2.3446998596,1.8313007355.9159011841,1.0568008423,1.0806999207,1.3486003876,1.6027984619,2.1410999298.4123001099.619600296.7877998352,1.2572994232,1.0442008972,1.9862995148.1557006836.4556007385-.0457992554.8290996552-.5862007141,1.0569000244l-.0001983643-.0000019073Z"/>
  </g>
</svg>