<?xml version="1.0" encoding="UTF-8"?>
<svg id="Layer_2" data-name="Layer 2" xmlns="http://www.w3.org/2000/svg" viewBox="0 0 54 50.13">
  <defs>
    <style>
      .cls-1 {
        fill: #ff323d;
      }

      .cls-2 {
        fill: #ff9d00;
      }

      .cls-3 {
        fill: #ffad03;
      }

      .cls-3, .cls-4, .cls-5 {
        fill-rule: evenodd;
      }

      .cls-4 {
        fill: #32343d;
      }

      .cls-6 {
        fill: #fff;
      }

      .cls-5 {
        fill: #ffd21e;
      }
    </style>
  </defs>
  <g id="Layer_1-2" data-name="Layer 1">
    <g>
      <path class="cls-6" d="M53.82,36.85c-.14-.53-.37-1.04-.68-1.49.07-.24.12-.48.15-.73.22-1.57-.33-3-1.35-4.11-.55-.61-1.15-1.01-1.78-1.25.41-1.77.62-3.58.62-5.39,0-.83-.05-1.64-.13-2.44-.04-.4-.09-.8-.15-1.2-.18-1.17-.45-2.33-.8-3.46-.23-.74-.5-1.48-.8-2.2-.45-1.06-.98-2.09-1.58-3.08-.39-.66-.82-1.29-1.29-1.9-.23-.31-.46-.61-.71-.9-.73-.89-1.52-1.72-2.37-2.49-.28-.26-.57-.51-.87-.75-.29-.24-.59-.48-.9-.71-.61-.46-1.25-.89-1.9-1.29-3.61-2.19-7.85-3.45-12.38-3.45C13.72,0,3.04,10.69,3.04,23.87c0,1.84.21,3.67.63,5.46-.57.25-1.11.63-1.61,1.18-1.02,1.11-1.57,2.54-1.35,4.11.03.25.08.5.15.74-.31.46-.53.96-.67,1.49-.31,1.2-.21,2.27.19,3.22-.43,1.23-.33,2.55.24,3.69.41.84,1,1.48,1.73,2.06.86.69,1.94,1.27,3.25,1.83,1.56.66,3.45,1.29,4.32,1.52,2.23.58,4.37.94,6.54.96,3.09.03,5.75-.7,7.65-2.56.94.11,1.88.17,2.82.17,1,0,1.99-.06,2.98-.19,1.9,1.87,4.57,2.6,7.67,2.57,2.17-.02,4.31-.38,6.53-.96.87-.23,2.77-.85,4.32-1.52,1.3-.56,2.38-1.14,3.25-1.83.72-.58,1.31-1.22,1.72-2.06.57-1.14.67-2.46.25-3.69.4-.94.5-2.03.18-3.22ZM51.6,39.99c.44.83.47,1.77.08,2.65-.59,1.33-2.04,2.37-4.87,3.49-1.76.7-3.37,1.14-3.38,1.15-2.33.6-4.43.91-6.25.91-3.02,0-5.26-.83-6.68-2.48-2.41.41-4.86.42-7.28.04-1.43,1.62-3.66,2.43-6.65,2.43-1.82,0-3.93-.31-6.25-.91-.01,0-1.62-.45-3.38-1.15-2.83-1.12-4.28-2.17-4.87-3.49-.39-.87-.36-1.81.08-2.65.04-.08.08-.15.13-.23-.26-.39-.44-.84-.52-1.31-.08-.47-.06-.95.06-1.4.17-.66.53-1.21,1.02-1.61-.24-.39-.39-.82-.45-1.26-.14-.97.18-1.95.91-2.74.57-.62,1.37-.96,2.25-.96h.02c-.67-2.14-1.01-4.37-1-6.62C4.57,11.64,14.49,1.71,26.73,1.71s22.16,9.92,22.16,22.16c0,2.25-.34,4.49-1.01,6.63.11-.01.21-.02.31-.02.89,0,1.69.34,2.25.96.73.79,1.05,1.77.91,2.74-.06.45-.22.88-.45,1.26.49.4.85.95,1.02,1.61.12.46.14.94.06,1.4-.08.47-.25.91-.52,1.31.05.07.09.15.13.22Z"/>
      <path class="cls-2" d="M51.47,39.77c.26-.39.44-.84.52-1.31.08-.47.06-.95-.06-1.4-.17-.66-.53-1.21-1.02-1.61.24-.39.39-.82.45-1.26.14-.97-.18-1.95-.91-2.74-.57-.62-1.37-.96-2.25-.96-.1,0-.21,0-.31.02.67-2.15,1.01-4.38,1.01-6.63,0-12.24-9.92-22.16-22.16-22.16S4.57,11.63,4.57,23.87c0,2.24.34,4.47,1,6.62h-.02c-.89,0-1.69.34-2.25.96-.73.79-1.05,1.77-.91,2.74.06.45.22.88.45,1.26-.49.39-.85.94-1.02,1.61-.12.46-.14.94-.06,1.4.08.47.25.91.52,1.31-.05.07-.09.15-.13.23-.44.83-.47,1.77-.08,2.65.59,1.33,2.04,2.37,4.87,3.49,1.76.7,3.37,1.14,3.38,1.15,2.33.6,4.43.91,6.25.91,2.99,0,5.22-.82,6.65-2.43,2.41.38,4.87.37,7.28-.04,1.42,1.64,3.67,2.48,6.68,2.48,1.82,0,3.93-.31,6.25-.91.01,0,1.62-.45,3.38-1.15,2.83-1.12,4.28-2.17,4.87-3.49.39-.87.36-1.81-.08-2.65-.04-.08-.08-.15-.13-.23ZM22.2,43.22c-.12.21-.25.42-.39.63-.37.54-.85.95-1.42,1.26-1.08.59-2.44.79-3.82.79-2.18,0-4.42-.51-5.68-.84-.06-.02-7.69-2.17-6.73-4.01.16-.31.43-.43.77-.43,1.36,0,3.84,2.03,4.9,2.03.24,0,.41-.1.47-.35.45-1.63-6.89-2.31-6.28-4.67.11-.42.41-.59.82-.59,1.8,0,5.83,3.16,6.68,3.16.06,0,.11-.02.14-.06,0,0,0-.01.01-.02.4-.65.17-1.13-2.55-2.79l-.26-.16c-2.99-1.81-5.08-2.9-3.89-4.19.14-.15.33-.22.57-.22.28,0,.62.09.99.25,1.58.67,3.76,2.48,4.68,3.27.14.12.29.25.43.38,0,0,1.16,1.2,1.86,1.2.16,0,.3-.06.39-.22.5-.84-4.6-4.7-4.89-6.3-.2-1.08.14-1.63.75-1.63.29,0,.65.12,1.04.37,1.22.77,3.57,4.82,4.43,6.39.29.53.78.75,1.23.75.88,0,1.57-.88.08-1.99-2.24-1.68-1.45-4.42-.38-4.58.05,0,.09-.01.14-.01.97,0,1.4,1.68,1.4,1.68,0,0,1.26,3.16,3.42,5.31,1.96,1.96,2.23,3.57,1.09,5.57ZM29.18,43.59h-.11s-.19.04-.19.04c-.1.01-.2.02-.3.03h-.1s-.09.02-.09.02h-.13s-.14.02-.14.02h-.14s-.03.01-.03.01c-.04,0-.07,0-.11,0h-.05s-.09,0-.13,0h-.15s-.14.01-.14.01h-.09s-.05,0-.05,0c-.03,0-.06,0-.09,0h-.05s-.06,0-.09,0h-.12s-.16,0-.16,0c-.13,0-.26,0-.39,0h-.1s-.06,0-.09,0h-.11s-.14,0-.14,0h-.12s-.03,0-.03,0h-.12s-.07,0-.1-.01h-.08c-.1-.01-.19-.02-.29-.02h-.1s-.08-.02-.13-.02c-.05,0-.1,0-.15-.01-.08,0-.16-.02-.25-.02h0c1.2-2.67.59-5.17-1.83-7.59-1.59-1.59-2.64-3.93-2.86-4.44-.44-1.52-1.62-3.21-3.57-3.21-.16,0-.33.01-.49.04-.85.13-1.6.63-2.13,1.37-.58-.72-1.14-1.29-1.64-1.61-.76-.48-1.52-.73-2.27-.73-.93,0-1.75.38-2.33,1.07v.02s-.04-.09-.05-.14h0c-.11-.48-.2-.95-.28-1.43,0,0,0,0,0,0,0-.04-.01-.07-.02-.11-.02-.11-.03-.21-.05-.32,0-.05-.01-.1-.02-.15l-.02-.15s-.01-.09-.02-.14h0c-.02-.2-.04-.39-.06-.58v-.07s-.01-.12-.01-.12c0-.03,0-.07,0-.1,0,0,0-.02,0-.02,0-.09-.01-.19-.02-.29,0-.05,0-.1,0-.15v-.13s0-.04,0-.04v-.12s0-.1,0-.1c0-.04,0-.08,0-.12,0-.04,0-.09,0-.13,0-.04,0-.09,0-.13,0-.04,0-.09,0-.13C6.86,12.9,15.76,4,26.73,4s19.87,8.9,19.87,19.87v.26s0,.09,0,.13c0,.04,0,.07,0,.11,0,.03,0,.06,0,.09,0,.04,0,.08,0,.12h0s0,.14,0,.14c0,.04,0,.08,0,.12v.03s0,.13,0,.13c-.02.28-.04.56-.06.83h0s0,.09-.01.14v.11s-.04.21-.04.21v.11s-.03.13-.03.13c0,.05-.01.09-.02.14,0,.05-.01.1-.02.15l-.02.12-.02.14s-.02.09-.02.14c0,.05-.02.09-.02.14-.02.09-.03.18-.05.27-.03.13-.05.27-.08.4l-.03.13s-.02.09-.03.13c-.56-.54-1.3-.84-2.12-.84-.74,0-1.5.25-2.27.73-.51.32-1.07.89-1.64,1.61-.53-.74-1.28-1.23-2.13-1.37-.16-.03-.33-.04-.49-.04-1.95,0-3.12,1.69-3.57,3.21-.22.51-1.28,2.86-2.87,4.44-2.42,2.41-3.03,4.9-1.85,7.56ZM49.7,38.24v.02c-.03.05-.05.1-.08.15-.02.04-.04.07-.06.11-.04.07-.09.13-.14.19-.01.01-.02.03-.04.04-.02.02-.04.04-.06.06-.35.35-.89.66-1.5.94-.07.03-.14.06-.21.09l-.07.03s-.09.04-.14.06c-.05.02-.1.04-.14.06l-.15.06c-.34.14-.69.28-1.03.41l-.15.06-.14.06c-.1.04-.19.07-.28.11l-.14.06-.14.06-.07.03s-.09.04-.13.06c-1.01.43-1.73.87-1.58,1.42,0,.02,0,.03.01.04.01.04.03.08.06.11.01.02.03.04.05.06.18.19.5.16.91,0,.06-.02.12-.04.17-.07h.04c.09-.05.19-.1.29-.15.03-.01.05-.02.08-.04.5-.25,1.07-.58,1.63-.88.23-.12.45-.24.69-.35.53-.25,1.04-.43,1.44-.43.19,0,.36.04.5.13l.02.02c.09.06.16.14.22.23.01.02.02.04.03.06.2.38.03.77-.36,1.16-.38.37-.96.73-1.62,1.07-.05.02-.1.05-.15.07-1.97.97-4.56,1.7-4.6,1.71-.69.18-1.67.41-2.78.59l-.16.03h-.03c-.12.02-.25.04-.37.06-.13.02-.25.03-.38.05h-.02c-.47.06-.94.09-1.4.11h0c-.17,0-.34,0-.51,0h-.2c-.26,0-.52-.02-.78-.04,0,0-.01,0-.02,0-.09,0-.18-.02-.28-.03-.1-.01-.19-.02-.29-.03-.06,0-.13-.02-.19-.03-.06-.01-.13-.02-.19-.03l-.09-.02h0c-.09-.02-.18-.04-.27-.06-.05-.01-.1-.02-.16-.04h-.03s-.05-.02-.08-.03h-.01s-.08-.03-.08-.03c-.03,0-.06-.02-.09-.03h-.01s-.08-.03-.08-.03c-.03,0-.06-.02-.09-.03l-.07-.02-.05-.02s-.1-.04-.15-.05l-.05-.02-.04-.02c-.07-.03-.15-.06-.22-.09l-.05-.02h0s-.03-.02-.05-.03c-.03-.02-.07-.03-.1-.05h-.01s-.05-.03-.05-.03c-.09-.04-.17-.09-.25-.14l-.05-.03s-.05-.03-.07-.04l-.06-.04-.06-.04-.04-.03s-.08-.06-.12-.09l-.06-.05s-.05-.04-.07-.06c-.02-.02-.04-.03-.06-.05h0s-.04-.04-.06-.06c-.02-.02-.04-.04-.06-.06h0s-.04-.04-.06-.06c-.02-.02-.04-.04-.06-.06-.02-.02-.04-.04-.06-.06-.02-.02-.04-.04-.06-.06h0s-.04-.05-.05-.07c-.04-.04-.07-.09-.11-.14-.04-.05-.07-.1-.1-.14l-.03-.05c-.04-.06-.08-.13-.13-.19-.03-.05-.06-.09-.09-.14-.02-.03-.04-.06-.05-.09h0s-.03-.07-.05-.1c0-.02-.02-.03-.03-.05,0-.02-.02-.03-.03-.05v-.03s-.02-.02-.02-.02c-.02-.03-.03-.06-.05-.1,0-.01-.02-.03-.02-.04l-.02-.05-.02-.04c-.06-.12-.11-.24-.17-.36l-.02-.04s-.02-.06-.04-.09c0-.01-.01-.03-.02-.04-.03-.07-.05-.15-.08-.22,0-.03-.02-.05-.02-.08-.02-.06-.04-.12-.05-.18-.02-.07-.04-.14-.05-.21,0-.01,0-.03,0-.04-.01-.07-.02-.14-.03-.21,0-.01,0-.03,0-.04v-.04c-.01-.06-.01-.11-.02-.17,0-.01,0-.03,0-.04,0-.03,0-.06,0-.08-.01-1.12.55-2.2,1.76-3.41,2.16-2.16,3.42-5.31,3.42-5.31,0,0,.03-.13.1-.32,0-.03.02-.05.03-.08.04-.11.09-.21.14-.31v-.02c.05-.09.1-.17.15-.25.01-.02.02-.04.04-.06.04-.06.08-.11.12-.17.02-.03.05-.06.07-.09.01-.01.02-.02.03-.03.13-.13.27-.23.43-.29h.02s.03-.02.04-.02c.02,0,.03,0,.05-.01h0s.07-.01.1-.02h0s.04,0,.06,0c.02,0,.05,0,.07,0,.02,0,.05,0,.07,0,.19.03.38.15.54.33.06.07.12.14.16.22.03.05.06.1.09.16.01.02.02.04.03.07.03.06.05.12.07.18.05.14.09.29.12.44.02.13.04.27.04.4,0,.07,0,.14,0,.22-.01.34-.08.68-.21.99-.01.03-.02.06-.04.09-.02.06-.05.12-.08.17-.02.04-.04.09-.07.13-.02.03-.03.06-.05.09-.04.07-.09.14-.14.21l-.03.04c-.12.16-.24.31-.39.45-.14.14-.29.27-.45.39-.16.12-.31.25-.44.39-.39.41-.49.78-.4,1.06.01.04.03.09.06.13.03.05.06.09.09.13h.01s.01.03.01.03c.01.01.03.03.05.04h.02s.08.07.12.09c.01,0,.02.01.04.02.05.02.09.04.14.06.01,0,.03,0,.04.01h.02s.02.01.02.01h.02s.02,0,.02,0h.02s.02,0,.02,0c.02,0,.03,0,.05,0h.01s.03,0,.03,0h.02s.03,0,.03,0h.05s.09,0,.09,0h.03s.03,0,.03,0h.04s.03,0,.03,0c0,0,.02,0,.02,0,.1-.02.21-.04.31-.08l.04-.02s.05-.02.07-.03c.05-.02.09-.05.13-.08.06-.04.12-.08.17-.13.01-.01.02-.02.04-.03,0,0,.01-.01.02-.02.01-.01.02-.02.03-.04.08-.09.16-.19.22-.3.51-.93,1.05-1.85,1.61-2.76l.08-.12.08-.12c.04-.06.08-.12.12-.19l.04-.06c.13-.2.26-.41.4-.61l.08-.12c.16-.24.32-.47.48-.69l.08-.11c.17-.24.35-.47.54-.7l.07-.09s.02-.03.04-.04c.02-.03.05-.06.07-.08.01-.01.02-.03.04-.04l.07-.08.04-.04s.07-.07.1-.11c.02-.02.05-.05.07-.07.13-.14.28-.26.44-.36l.04-.02s.07-.05.11-.07c.62-.35,1.13-.38,1.43-.08.18.18.28.48.27.89,0,.02,0,.04,0,.06v.02s0,.04,0,.06c0,.02,0,.05,0,.07,0,.02,0,.04,0,.06,0,0,0,.01,0,.02,0,.02,0,.04,0,.06,0,0,0,.01,0,.02,0,.02,0,.05-.01.07,0,.02,0,.05-.01.07v.04s-.02.07-.03.11c-.02.07-.05.13-.07.2-.04.09-.09.17-.13.26-.03.05-.06.09-.08.14-.03.05-.06.09-.09.14-.08.12-.17.23-.26.35l-.04.05c-.15.18-.3.36-.45.53l-.05.06c-.07.07-.13.15-.2.22l-.05.06s-.07.07-.1.11c-.03.04-.07.08-.11.11l-.11.11-.11.11-.11.11c-.07.08-.15.15-.22.23-1.06,1.09-2.18,2.18-2.56,2.85-.03.04-.05.09-.07.14-.05.12-.08.23-.06.31,0,.03.01.05.03.08.02.04.05.07.08.1.01.01.03.03.04.04.08.06.17.08.27.08h.06s.03,0,.03,0h.03s0,0,.01,0h.02s0,0,0,0h.03s0,0,0,0c0,0,.02,0,.03,0,0,0,.02,0,.03,0,.05-.01.09-.03.14-.05.02,0,.05-.02.07-.03.01,0,.02-.01.03-.02l.04-.02c.08-.04.17-.09.25-.14l.03-.02s.02-.01.03-.02l.03-.02h.02s.05-.05.05-.05c.05-.03.09-.07.14-.1h0s.07-.06.07-.06c.1-.08.19-.15.27-.22l.06-.05h0s.03-.03.03-.03c.07-.06.13-.12.18-.16l.02-.02s.03-.03.05-.05l.03-.03h.01s0-.01,0-.01l.03-.03.02-.02h0s0-.01,0-.01h.01s0-.01,0-.01h0s.05-.06.05-.06l.03-.03s.03-.03.05-.04l.04-.03s.01-.01.02-.02l.04-.03.06-.05.03-.03c.11-.1.25-.22.41-.35l.07-.06.11-.09.11-.09c.14-.12.3-.25.46-.38l.11-.09c.09-.07.19-.15.28-.22.04-.03.08-.06.12-.09.1-.08.2-.15.29-.23.22-.17.46-.34.69-.51l.1-.07c.07-.05.14-.1.21-.14l.06-.04c.13-.09.25-.17.38-.25l.06-.04.06-.04c.06-.04.13-.08.19-.12l.06-.04.13-.07.12-.07h.02s.1-.07.1-.07c.04-.02.08-.04.12-.06l.06-.03.06-.03s.04-.02.06-.03c.13-.07.27-.12.4-.18.04-.02.07-.03.11-.04l.11-.04s.06-.02.09-.03h.01s.03-.01.05-.02h0s.07-.02.1-.03h0c.09-.02.19-.04.28-.05.04,0,.09,0,.13,0h.02s.06,0,.09,0c.01,0,.03,0,.04,0h0s.03,0,.04,0c.01,0,.02,0,.04,0h0s.02,0,.04,0c.07.02.13.05.19.09.03.02.06.04.08.06h0s0,.02.01.02h.01c.11.12.19.25.26.39v.02c.03.05.05.11.06.16.04.17.02.35-.04.51-.02.07-.05.13-.09.19-.08.14-.18.27-.29.38l-.02.02s-.07.07-.11.11c-.02.02-.03.03-.05.05l-.05.05-.03.02c-.07.06-.14.12-.21.18-.04.03-.09.07-.13.1-.15.12-.31.23-.47.34-.1.07-.19.13-.29.19-.24.16-.48.31-.73.46-.52.32-1.09.66-1.7,1.03l-.16.1c-.17.11-.34.21-.49.3l-.08.05-.15.09c-.1.06-.19.12-.29.19l-.08.05s-.08.05-.11.07l-.04.02-.11.08-.06.04-.07.05-.07.05c-.11.08-.21.15-.3.22l-.04.03c-.06.04-.11.08-.16.13-.08.07-.15.13-.22.19l-.03.03s-.04.03-.05.05c-.01.01-.02.02-.04.03l-.02.02s-.07.08-.11.12l-.02.02s-.07.09-.1.13v.02s-.06.07-.08.1c0,0,0,.02-.01.03v.03s-.02.02-.02.02h0s0,.02,0,.02v.02s-.03.09-.04.14v.02s0,.02,0,.02v.08s0,.01,0,.02h0s0,.03,0,.03c0,0,0,.02,0,.03h0s0,.02,0,.03,0,.02,0,.03c0,.02.01.04.02.06,0,.01,0,.02.01.03,0,0,0,0,0,0v.02s.02.03.02.03c.01.03.03.06.05.09l.02.03.02.03s0,0,.01.01h0s0,.01,0,.01h0s.02.02.03.02c0,0,.01,0,.02,0,.15.03.46-.09.88-.31.02-.01.05-.03.07-.04l.13-.07.06-.03s.09-.05.13-.08l.08-.05c.55-.31,1.2-.72,1.87-1.11.06-.04.13-.07.19-.11l.13-.08c.15-.08.3-.17.45-.25.19-.1.38-.2.57-.3l.12-.06c.08-.04.16-.08.25-.12.16-.07.32-.15.48-.21l.09-.04h.01c.47-.19.89-.3,1.23-.3.07,0,.15,0,.22.02h0s.04,0,.07.01h0c.06.01.11.03.16.06.07.04.14.09.19.15.03.03.05.06.07.09.04.06.07.12.09.18,0,.02.02.05.02.08.06.2.05.41-.02.6Z"/>
      <path class="cls-5" d="M46.6,24v-.13c0-10.97-8.89-19.87-19.87-19.87S6.86,12.9,6.86,23.87v.04s0,.06,0,.09c0,.04,0,.09,0,.13v.09s0,.03,0,.03c0,.02,0,.03,0,.05,0,.02,0,.05,0,.07v.1s0,.12,0,.12v.04s0,.12,0,.12h0c0,.05,0,.1,0,.15h0c0,.05,0,.1,0,.15,0,.05,0,.09,0,.14h0s0,.09,0,.13h0s0,.12,0,.12h0s0,.05,0,.07c.02.19.03.38.05.57h0s.02.15.02.15l.02.15v.1s.02.05.02.05c.01.11.03.21.05.32h0s.02.11.02.11c.07.48.17.96.28,1.43h0s0,.04,0,.04l.02.1v-.02c.59-.69,1.42-1.07,2.34-1.07.74,0,1.5.25,2.27.73.51.32,1.07.89,1.64,1.61.53-.74,1.28-1.23,2.13-1.37.16-.03.33-.04.49-.04,1.95,0,3.12,1.69,3.57,3.21.22.51,1.28,2.86,2.87,4.44,2.42,2.42,3.03,4.92,1.83,7.59h0c.08,0,.16.02.25.03.05,0,.1,0,.15.01h.02s.11.01.11.01h.1c.09.02.19.02.29.03h.08s.06,0,.06,0h.04s.12,0,.12,0h.03s.12,0,.12,0h.14s.11,0,.11,0h.02s.05,0,.07,0h.03c.15,0,.31,0,.46,0h.28s.06,0,.09,0h.09s.03,0,.05,0h.14s.14,0,.14,0h.15s.09-.01.13-.01h.05s.07,0,.07,0h.04s.03,0,.03,0h.14s.14-.02.14-.02h.13s.09-.02.09-.02h.1c.16-.02.33-.04.49-.06h.11c-1.18-2.68-.57-5.16,1.84-7.57,1.59-1.59,2.65-3.93,2.87-4.44.44-1.52,1.62-3.21,3.57-3.21.16,0,.33.01.49.04.85.13,1.6.63,2.13,1.37.58-.72,1.14-1.29,1.64-1.61.76-.48,1.52-.73,2.27-.73.82,0,1.56.3,2.12.84.01-.04.02-.09.03-.13l.03-.13s.02-.1.03-.15c.02-.09.03-.17.05-.26.02-.09.03-.18.05-.27v-.05s.02-.06.02-.09c0-.05.02-.09.02-.14v-.02s.02-.12.02-.12l.02-.12h0c.01-.09.03-.18.04-.27v-.02s.02-.13.02-.13v-.11s.04-.21.04-.21v-.08s.01-.02.01-.02c0-.05,0-.09.01-.14h0s0-.08.01-.11c.02-.21.03-.41.05-.62,0-.03,0-.07,0-.1h0s0-.13,0-.13v-.03c0-.09,0-.17.01-.26h0s0-.04,0-.04c0-.03,0-.06,0-.09h0s0-.07,0-.09v-.02s0-.05,0-.08v-.02s0-.07,0-.1v-.13ZM21.81,43.85c1.57-2.31,1.46-4.04-.7-6.2-2.16-2.16-3.42-5.31-3.42-5.31,0,0-.47-1.83-1.54-1.66s-1.85,2.91.39,4.58c2.24,1.68-.45,2.81-1.31,1.24-.86-1.57-3.22-5.62-4.44-6.39-1.22-.77-2.08-.34-1.79,1.25.14.79,1.47,2.14,2.71,3.4,1.26,1.28,2.43,2.47,2.18,2.89-.5.84-2.24-.98-2.24-.98,0,0-5.47-4.98-6.66-3.68-1.1,1.2.6,2.21,3.21,3.78.22.13.45.27.68.41,2.99,1.81,3.22,2.29,2.79,2.97-.16.25-1.16-.35-2.39-1.09-2.1-1.26-4.86-2.92-5.25-1.43-.34,1.29,1.7,2.07,3.54,2.79,1.54.6,2.94,1.14,2.73,1.88-.21.77-1.38.13-2.64-.57-1.43-.78-2.99-1.64-3.5-.67-.97,1.83,6.66,3.99,6.73,4.01,2.46.64,8.72,1.99,10.91-1.21ZM31.94,43.85c-1.57-2.31-1.46-4.04.7-6.2,2.16-2.16,3.42-5.31,3.42-5.31,0,0,.47-1.83,1.54-1.66,1.07.17,1.85,2.91-.39,4.58-2.24,1.68.45,2.81,1.31,1.24.86-1.57,3.21-5.62,4.43-6.39s2.08-.34,1.79,1.25c-.14.79-1.47,2.14-2.71,3.41-1.26,1.28-2.43,2.47-2.18,2.89.5.84,2.25-.98,2.25-.98,0,0,5.47-4.98,6.67-3.68,1.1,1.2-.6,2.21-3.21,3.78-.23.14-.46.27-.68.41-2.99,1.81-3.22,2.28-2.8,2.97.16.25,1.16-.35,2.39-1.09,2.1-1.26,4.86-2.92,5.25-1.43.34,1.29-1.7,2.07-3.54,2.79-1.54.6-2.94,1.14-2.74,1.88.21.77,1.37.13,2.64-.57,1.43-.78,2.99-1.64,3.5-.67.97,1.83-6.66,3.99-6.72,4-2.46.64-8.72,2-10.91-1.21Z"/>
      <path class="cls-4" d="M33.19,18.46c.31.11.54.44.76.76.3.43.57.83,1,.6.5-.27.91-.67,1.18-1.17.27-.5.38-1.06.33-1.63-.04-.42-.17-.83-.39-1.19-.22-.36-.51-.67-.86-.91-.35-.24-.75-.39-1.17-.45-.42-.06-.85-.03-1.25.09-.4.12-.78.33-1.09.62-.31.28-.56.63-.72,1.02s-.24.81-.22,1.23c.02.42.13.83.33,1.21.2.37.63.19,1.09.01.36-.14.74-.29,1.02-.19ZM19.72,18.46c-.31.11-.54.44-.76.76-.3.43-.57.83-1,.6-.63-.33-1.11-.89-1.35-1.56-.24-.67-.23-1.4.05-2.06s.78-1.19,1.42-1.49c.64-.3,1.37-.36,2.05-.15.54.16,1.02.48,1.38.92.36.44.58.97.64,1.53.06.56-.05,1.13-.32,1.63-.2.37-.63.19-1.09.01-.36-.14-.73-.29-1.02-.19ZM31.1,30.72c2.14-1.68,2.92-4.43,2.92-6.12,0-1.34-.9-.92-2.34-.2l-.08.04c-1.32.65-3.08,1.53-5.01,1.53s-3.69-.87-5.01-1.53c-1.49-.74-2.42-1.2-2.42.16,0,1.75.83,4.61,3.12,6.28.3-.61.73-1.16,1.25-1.6.52-.44,1.13-.77,1.78-.97.23-.07.46.33.71.73.23.39.47.79.71.79.26,0,.51-.39.76-.77.26-.4.51-.79.75-.71,1.23.39,2.25,1.25,2.86,2.38Z"/>
      <path class="cls-1" d="M31.1,30.72c-1.11.88-2.59,1.46-4.51,1.46-1.81,0-3.22-.52-4.31-1.31.3-.61.73-1.16,1.25-1.6.52-.44,1.13-.77,1.78-.97.45-.13.92,1.51,1.42,1.51.53,0,1.03-1.64,1.51-1.49,1.23.39,2.25,1.25,2.86,2.38Z"/>
      <path class="cls-3" d="M14.61,20.84c-.25.17-.55.27-.85.3-.3.03-.61-.02-.89-.13-.23-.09-.43-.23-.6-.4-.17-.17-.31-.38-.4-.6-.12-.28-.16-.59-.13-.89.03-.3.13-.6.3-.85.2-.31.49-.54.83-.68s.71-.18,1.07-.11c.36.07.69.25.95.51.26.26.44.59.51.95.07.36.03.73-.11,1.07-.14.34-.38.63-.68.83ZM41.2,20.84c-.25.17-.55.27-.85.3-.3.03-.61-.02-.89-.13-.23-.09-.43-.23-.6-.4-.17-.17-.31-.38-.4-.6-.12-.28-.16-.59-.13-.89.03-.3.13-.6.3-.85.15-.23.35-.42.59-.56.24-.14.5-.23.77-.26.27-.03.55,0,.81.1.26.09.49.24.69.44.26.26.44.59.51.95.07.36.03.73-.11,1.07s-.38.63-.68.83Z"/>
    </g>
  </g>
</svg>