<?xml version="1.0" encoding="UTF-8"?>
<svg id="Layer_2" data-name="Layer 2" xmlns="http://www.w3.org/2000/svg" xmlns:xlink="http://www.w3.org/1999/xlink" viewBox="0 0 347 350">
  <defs>
    <style>
      .cls-1 {
        filter: url(#drop-shadow-1);
      }

      .cls-1, .cls-2, .cls-3 {
        fill: #fff;
      }

      .cls-2 {
        filter: url(#drop-shadow-3);
      }

      .cls-3 {
        filter: url(#drop-shadow-2);
      }
    </style>
    <filter id="drop-shadow-1" x="81" y="0" width="179" height="179" filterUnits="userSpaceOnUse">
      <feOffset dx="7" dy="7"/>
      <feGaussianBlur result="blur" stdDeviation="5"/>
      <feFlood flood-color="#000" flood-opacity=".25"/>
      <feComposite in2="blur" operator="in"/>
      <feComposite in="SourceGraphic"/>
    </filter>
    <filter id="drop-shadow-2" x="0" y="172" width="173" height="173" filterUnits="userSpaceOnUse">
      <feOffset dx="7" dy="7"/>
      <feGaussianBlur result="blur-2" stdDeviation="5"/>
      <feFlood flood-color="#000" flood-opacity=".25"/>
      <feComposite in2="blur-2" operator="in"/>
      <feComposite in="SourceGraphic"/>
    </filter>
    <filter id="drop-shadow-3" x="163" y="166" width="184" height="184" filterUnits="userSpaceOnUse">
      <feOffset dx="7" dy="7"/>
      <feGaussianBlur result="blur-3" stdDeviation="5"/>
      <feFlood flood-color="#000" flood-opacity=".25"/>
      <feComposite in2="blur-3" operator="in"/>
      <feComposite in="SourceGraphic"/>
    </filter>
  </defs>
  <g id="Layer_1-2" data-name="Layer 1">
    <path class="cls-1" d="M190.8844759214,8.8853841657l-77.6886593802,13.6985947601c-15.323664919,2.7019732048-25.555567712,17.3146401312-22.8535945072,32.6383050501l13.6985947601,77.6886593802c2.7019732048,15.323664919,17.3146401312,25.555567712,32.6383050501,22.8535945072l77.6886593802-13.6985947601c15.323664919-2.7019732048,25.555567712-17.3146401312,22.8535945072-32.6383050501l-13.6985947601-77.6886593802c-2.7019732048-15.323664919-17.3146401312-25.555567712-32.6383050501-22.8535945072ZM172.5880383715,132.2676706161c-27.5825855643,4.863549778-53.8853993122-13.5538845487-58.7489490902-41.1364701129s13.5538845487-53.8853993122,41.1364701129-58.7489490902c27.5825855643-4.863549778,53.8853993122,13.5538845487,58.7489490902,41.1364701129,4.863549778,27.5825855643-13.5538845487,53.8853993122-41.1364701129,58.7489490902Z"/>
    <path class="cls-3" d="M112.6600872263,180.5708430832l-78.5869407488,6.8754664167c-15.5008460263,1.3561483024-26.9673891352,15.0214422471-25.6112408329,30.5222882734l6.8754664167,78.5869407488c1.3561483024,15.5008460263,15.0214422471,26.9673891352,30.5222882734,25.6112408329l78.5869407488-6.8754664167c15.5008460263-1.3561483024,26.9673891352-15.0214422471,25.6112408329-30.5222882734l-6.8754664167-78.5869407488c-1.3561483024-15.5008460263-15.0214422471-26.9673891352-30.5222882734-25.6112408329ZM83.679816477,301.8889874148c-27.9015114269,2.4410659451-52.499052947-18.1987220723-54.9401188921-46.1002334992s18.1987220723-52.499052947,46.1002334992-54.9401188921,52.499052947,18.1987220723,54.9401188921,46.1002334992-18.1987220723,52.499052947-46.1002334992,54.9401188921Z"/>
    <path class="cls-2" d="M303.9039941839,196.2640337111l-76.1991145121-20.4174984332c-15.0298603068-4.0272403588-30.478692836,4.8921454357-34.5059331948,19.9220057425l-20.4174984332,76.1991145121c-4.0272403588,15.0298603068,4.8921454357,30.478692836,19.9220057425,34.5059331948l76.1991145121,20.4174984332c15.0298603068,4.0272403588,30.478692836-4.8921454357,34.5059331948-19.9220057425l20.4174984332-76.1991145121c4.0272403588-15.0298603068-4.8921454357-30.478692836-19.9220057425-34.5059331948ZM235.1781892781,300.3539562626c-27.0537374788-7.2490296786-43.1086400151-35.0569422718-35.8596103364-62.1106797506,7.2490296786-27.0537374788,35.0569422718-43.1086400151,62.1106797506-35.8596103364,27.0537374788,7.2490296786,43.1086400151,35.0569422718,35.8596103364,62.1106797505-7.2490296786,27.0537374788-35.0569422718,43.1086400151-62.1106797506,35.8596103365Z"/>
  </g>
</svg>