<?xml version="1.0" encoding="UTF-8"?>
<svg id="Layer_2" data-name="Layer 2" xmlns="http://www.w3.org/2000/svg" viewBox="0 0 54 47.72">
  <defs>
    <style>
      .cls-1 {
        isolation: isolate;
        opacity: .1;
      }

      .cls-2 {
        fill: #4386fa;
      }

      .cls-3 {
        fill: #fff;
      }
    </style>
  </defs>
  <g id="Layer_1-2" data-name="Layer 1">
    <g>
      <path class="cls-2" d="M12.22,45.96L.47,25.62c-.63-1.09-.63-2.43,0-3.51L12.22,1.76C12.84.67,14,0,15.25,0h23.5c1.25,0,2.4.67,3.02,1.76l11.75,20.35c.63,1.09.63,2.43,0,3.51l-11.75,20.35c-.63,1.09-1.78,1.76-3.04,1.76H15.25c-1.25,0-2.4-.67-3.03-1.76h0Z"/>
      <path class="cls-1" d="M34.34,17.31s3.27,7.83-1.19,12.27c-4.45,4.44-12.56,1.6-12.56,1.6l16.49,16.53h1.67c1.25,0,2.41-.67,3.04-1.76l7.78-13.46-15.23-15.18Z"/>
      <path class="cls-3" d="M38.19,33.33l-3.6-3.61s-.08-.07-.13-.1c3.32-4.28,2.55-10.45-1.73-13.77-4.28-3.32-10.45-2.55-13.77,1.73-3.32,4.28-2.55,10.45,1.73,13.77,3.55,2.75,8.51,2.75,12.05-.01.03.05.06.09.1.13l3.61,3.61c.22.22.58.22.8,0l.94-.94c.22-.22.22-.58,0-.8ZM26.7,31c-4.08,0-7.38-3.3-7.38-7.38,0-4.08,3.3-7.38,7.38-7.38,4.08,0,7.38,3.3,7.38,7.38h0c0,4.08-3.31,7.38-7.38,7.38ZM21.98,23.22v3.05c.47.83,1.15,1.52,1.97,2v-5.07l-1.97.02ZM25.67,20.69v8.25c.65.12,1.32.12,1.97,0v-8.25h-1.97ZM31.38,26.27v-1.81h-1.97v3.8c.82-.48,1.5-1.17,1.97-2h0Z"/>
    </g>
  </g>
</svg>