<?xml version="1.0" encoding="UTF-8"?>
<svg id="Layer_2" data-name="Layer 2" xmlns="http://www.w3.org/2000/svg" viewBox="0 0 49.72 54">
  <defs>
    <style>
      .cls-1 {
        fill: #ff3620;
      }
    </style>
  </defs>
  <g id="Layer_1-2" data-name="Layer 1">
    <path class="cls-1" d="M0,31.91l24.86,13.99,22.32-12.49v4.97l-22.32,12.6L1.27,37.58,0,38.27v1.73l24.86,13.99,24.86-13.99v-9.71l-1.16-.7-23.7,13.41L2.66,30.3v-4.97l22.2,12.49,24.86-13.99v-9.6l-1.16-.69-23.7,13.41L3.82,15.03,24.86,3.12l17.46,9.83,1.5-.92v-1.27L24.86,0,0,14.11v1.62l24.86,13.99,22.32-12.49v5.09l-22.32,12.61L1.27,21.51,0,22.2v9.71Z"/>
  </g>
</svg>