<?xml version="1.0" encoding="UTF-8"?>
<svg id="Layer_2" data-name="Layer 2" xmlns="http://www.w3.org/2000/svg" viewBox="0 0 54 54">
  <defs>
    <style>
      .cls-1 {
        fill: #fff000;
      }
    </style>
  </defs>
  <g id="Layer_1-2" data-name="Layer 1">
    <g>
      <path class="cls-1" d="M41.44,23.01h-5.29v7.99h5.29c2.2,0,4.02-1.82,4.02-4.03s-1.82-3.96-4.02-3.96Z"/>
      <path class="cls-1" d="M21.38,15.82c-6.17,0-11.18,5.01-11.18,11.18,0,6.17,5.01,11.18,11.18,11.18,6.17,0,11.18-5.01,11.18-11.18,0-6.17-5.01-11.18-11.18-11.18Z"/>
      <path d="M27,0C12.07,0,0,12.07,0,27s12.07,27,27,27,27-12.07,27-27S41.93,0,27,0ZM21.38,38.18c-6.17,0-11.18-5.01-11.18-11.18,0-6.17,5.01-11.18,11.18-11.18,6.17,0,11.18,5.01,11.18,11.18,0,6.17-5.01,11.18-11.18,11.18ZM41.44,30.97h-5.29v-7.99h5.29c2.2,0,4.02,1.76,4.02,3.96s-1.82,4.03-4.02,4.03Z"/>
    </g>
  </g>
</svg>