<?xml version="1.0" encoding="UTF-8"?>
<svg id="Layer_2" data-name="Layer 2" xmlns="http://www.w3.org/2000/svg" xmlns:xlink="http://www.w3.org/1999/xlink" viewBox="0 0 54 54">
  <defs>
    <style>
      .cls-1 {
        fill: none;
      }

      .cls-2 {
        mask: url(#mask);
      }

      .cls-3 {
        fill: url(#radial-gradient-4);
      }

      .cls-4 {
        fill: url(#radial-gradient-3);
      }

      .cls-5 {
        fill: url(#radial-gradient-2);
      }

      .cls-6 {
        fill: url(#linear-gradient-2);
      }

      .cls-7 {
        fill: url(#radial-gradient);
      }

      .cls-8 {
        fill: url(#linear-gradient);
      }

      .cls-9 {
        clip-path: url(#clippath-1);
      }

      .cls-10 {
        fill: #fff;
      }

      .cls-11 {
        clip-path: url(#clippath);
      }
    </style>
    <clipPath id="clippath">
      <path class="cls-1" d="M0,14.3999862671c0-5.0404586792,0-7.5606880188.9809415042-9.4859046936.8628547043-1.6934394836,2.2396861017-3.0703010559,3.9331486523-3.933139801,1.925201118-.9809417725,4.4454374313-.9809417725,9.485910058-.9809417725h25.2000006437c5.0404500961,0,7.5606751442,0,9.4858875275.9809417725,1.6934609413.8628387451,3.0703482628,2.2397003174,3.9332256317,3.933139801.9808859825,1.9252166748.9808859825,4.4454460144.9808859825,9.4859046936v25.2000274658c0,5.0404243469,0,7.5606536865-.9808859825,9.4858703613-.8628773689,1.6934738159-2.2397646904,3.0703353882-3.9332256317,3.9332427979-1.9252123833.9808731079-4.4454374313.9808731079-9.4858875275.9808731079H14.4000002146c-5.0404726267,0-7.56070894,0-9.485910058-.9808731079-1.6934625506-.8629074097-3.0702939481-2.2397689819-3.9331486523-3.9332427979-.9809415042-1.9252166748-.9809415042-4.4454460144-.9809415042-9.4858703613V14.3999862671Z"/>
    </clipPath>
    <clipPath id="clippath-1">
      <rect class="cls-1" width="54" height="54"/>
    </clipPath>
    <mask id="mask" x="0" y="0" width="54" height="54" maskUnits="userSpaceOnUse">
      <g id="mask0_8666_6627" data-name="mask0 8666 6627">
        <path class="cls-10" d="M54,0H0v54h54V0Z"/>
      </g>
    </mask>
    <linearGradient id="linear-gradient" x1="44.269509142" y1="-708.1531398189" x2="21.6966091859" y2="-726.850189194" gradientTransform="translate(0 -682) scale(1 -1)" gradientUnits="userSpaceOnUse">
      <stop offset="0" stop-color="#0094f0"/>
      <stop offset=".2430469894" stop-color="#0078d4"/>
      <stop offset=".5844039917" stop-color="#2052cb"/>
      <stop offset=".8306390381" stop-color="#312a9a"/>
    </linearGradient>
    <radialGradient id="radial-gradient" cx="-807.693540166" cy="-66.8998973399" fx="-807.693540166" fy="-66.8998973399" r="1.125" gradientTransform="translate(-17241.7448902133 17183.9542694085) rotate(143.591004493) scale(29.8211003563 -53.0152021679)" gradientUnits="userSpaceOnUse">
      <stop offset="0" stop-color="#3bd5ff"/>
      <stop offset="1" stop-color="#0078d4"/>
    </radialGradient>
    <radialGradient id="radial-gradient-2" cx="-810.905470647" cy="-63.4226728559" fx="-810.905470647" fy="-63.4226728559" r="1.125" gradientTransform="translate(-15930.2766494752 14019.2359924317) rotate(146.3099966894) scale(25.9599983843 -43.7960005764)" gradientUnits="userSpaceOnUse">
      <stop offset="0" stop-color="#decbff" stop-opacity=".8999999762"/>
      <stop offset="1" stop-color="#decbff" stop-opacity="0"/>
    </radialGradient>
    <linearGradient id="linear-gradient-2" x1="36.8838298194" y1="-683.7495872665" x2="11.3119620462" y2="-711.5920960388" gradientTransform="translate(0 -682) scale(1 -1)" gradientUnits="userSpaceOnUse">
      <stop offset="0" stop-color="#0fafff"/>
      <stop offset=".1627140045" stop-color="#0094f0"/>
      <stop offset=".5638710403" stop-color="#2052cb"/>
      <stop offset=".7642829895" stop-color="#312a9a"/>
    </linearGradient>
    <radialGradient id="radial-gradient-3" cx="-805.5703578585" cy="-59.4271599091" fx="-805.5703578585" fy="-59.4271599091" r="1.125" gradientTransform="translate(-13085.7513046266 15110.9584617607) rotate(137.529998853) scale(24.660599994 -38.4117011012)" xlink:href="#radial-gradient"/>
    <radialGradient id="radial-gradient-4" cx="-816.0733548671" cy="-57.4579964486" fx="-816.0733548671" fy="-57.4579964486" r="1.125" gradientTransform="translate(-13664.9139614101 10481.2806921014) rotate(149.0359970451) scale(20.9914009147 -33.6004987096)" gradientUnits="userSpaceOnUse">
      <stop offset="0" stop-color="#decbff" stop-opacity=".8999999762"/>
      <stop offset="1" stop-color="#d1d1ff" stop-opacity="0"/>
    </radialGradient>
  </defs>
  <g id="Layer_1-2" data-name="Layer 1">
    <g class="cls-11">
      <g class="cls-9">
        <g class="cls-2">
          <g>
            <path class="cls-8" d="M26.9979743958,37.7999982834c11.9291610718,0,21.6000008583,3.6263251305,21.6000008583,8.1000008583v-16.2002248764c0-4.4734482765-9.6708397865-8.0999987125-21.6000008583-8.0999987125h-5.3999991417v16.2002227306h5.3999991417Z"/>
            <path class="cls-7" d="M48.598649025,29.6997742653c0,4.4735641479-9.6705007553,8.0998892784-21.5999987125,8.0998892784-7.2753760815,0-13.7106006145-1.3487648964-17.6243963242-3.4160635471-2.1193200946-.9395992756-3.9755702019.4842009544-3.9755702019,2.4141361713v9.1019282341c0,4.4736714363,9.6706917286,8.0999965668,21.599966526,8.0999965668,11.9294979572,0,21.5999987125-3.6263251305,21.5999987125-8.0999965668v-16.1998901367Z"/>
            <path class="cls-5" d="M48.598649025,29.6997742653c0,4.4735641479-9.6705007553,8.0998892784-21.5999987125,8.0998892784-7.2753760815,0-13.7106006145-1.3487648964-17.6243963242-3.4160635471-2.1193200946-.9395992756-3.9755702019.4842009544-3.9755702019,2.4141361713v9.1019282341c0,4.4736714363,9.6706917286,8.0999965668,21.599966526,8.0999965668,11.9294979572,0,21.5999987125-3.6263251305,21.5999987125-8.0999965668v-16.1998901367Z"/>
            <path class="cls-6" d="M26.9986503124,0c11.9292747974,0,21.6001102924,3.6264938414,21.6001102924,8.0999997854v9.1757254601c0,1.255163312-1.3080339432,3.4594863653-3.9788961411,2.3385375738-3.9144415855-2.0661753416-10.3479773998-3.4142632484-17.6212141514-3.4142632484-11.9292747974,0-21.599966526,3.6264388561-21.599966526,8.1000008583V8.0999997854C5.3986837864,3.6264938414,15.069375515,0,26.9986503124,0Z"/>
            <path class="cls-4" d="M26.9986503124,16.1997753382c-11.9292747974,0-21.599966526-3.6264377832-21.599966526-8.099966526v16.1999663115c0,4.4735620022,9.6706917286,8.1002240181,21.599966526,8.1002240181h1.3499987125c2.2368378639,0,4.0501141548-1.8134994507,4.0501141548-4.0502235889v-8.1000008583c0-2.2367241383-1.8132762909-4.0499993563-4.0501141548-4.0499993563h-1.3499987125Z"/>
            <path class="cls-3" d="M26.9986503124,16.1997753382c-11.9292747974,0-21.599966526-3.6264377832-21.599966526-8.099966526v16.1999663115c0,4.4735620022,9.6706917286,8.1002240181,21.599966526,8.1002240181h1.3499987125c2.2368378639,0,4.0501141548-1.8134994507,4.0501141548-4.0502235889v-8.1000008583c0-2.2367241383-1.8132762909-4.0499993563-4.0501141548-4.0499993563h-1.3499987125Z"/>
          </g>
        </g>
      </g>
    </g>
  </g>
</svg>