<?xml version="1.0" encoding="UTF-8"?>
<svg id="Layer_2" data-name="Layer 2" xmlns="http://www.w3.org/2000/svg" viewBox="0 0 54 36.77">
  <defs>
    <style>
      .cls-1 {
        fill: #00758f;
      }

      .cls-2 {
        fill: #f29111;
      }
    </style>
  </defs>
  <g id="Layer_1-2" data-name="Layer 1">
    <g>
      <path class="cls-1" d="M22.02,24.29c-.85,4.62-1.97,7.97-3.36,10.06-1.08,1.61-2.27,2.42-3.56,2.42-.34,0-.77-.1-1.27-.31v-1.11c.25.04.53.06.87.06.6,0,1.09-.17,1.46-.5.44-.41.66-.86.66-1.37,0-.35-.17-1.05-.52-2.13l-2.29-7.12h2.05l1.64,5.32c.37,1.21.52,2.05.46,2.53.9-2.4,1.53-5.02,1.88-7.86h1.97M12.98,33.5h-2.08c-.07-3.53-.28-6.84-.61-9.95h-.02l-3.17,9.95h-1.59l-3.15-9.95h-.02c-.23,2.98-.38,6.3-.44,9.95H0c.12-4.44.43-8.6.92-12.48h2.58l3.01,9.17h.02l3.02-9.17h2.47c.54,4.55.86,8.71.96,12.48"/>
      <path class="cls-2" d="M49.76,33.5h-5.92v-12.48h1.99v10.94h3.93v1.54M34.87,31c-.5-.81-.76-2.12-.76-3.92,0-3.14.95-4.72,2.86-4.72,1,0,1.73.38,2.19,1.13.5.81.76,2.11.76,3.88,0,3.17-.95,4.75-2.86,4.75-1,0-1.73-.38-2.19-1.13M42.29,33.8l-2.29-1.13c.2-.17.4-.35.57-.56.97-1.14,1.46-2.84,1.46-5.08,0-4.13-1.62-6.2-4.85-6.2-1.59,0-2.82.52-3.71,1.57-.97,1.15-1.46,2.84-1.46,5.07s.43,3.8,1.29,4.83c.78.92,1.97,1.39,3.56,1.39.59,0,1.14-.07,1.63-.22l2.98,1.74.81-1.4M31.14,30.04c0,1.06-.39,1.93-1.16,2.61-.77.68-1.81,1.02-3.12,1.02-1.22,0-2.4-.39-3.54-1.17l.53-1.07c.98.49,1.87.74,2.67.74.75,0,1.34-.17,1.76-.5.42-.33.68-.8.68-1.39,0-.74-.52-1.37-1.46-1.91-.87-.48-2.62-1.48-2.62-1.48-.95-.69-1.42-1.43-1.42-2.66,0-1.01.35-1.83,1.06-2.45.71-.62,1.62-.93,2.74-.93s2.21.31,3.15.93l-.48,1.07c-.81-.34-1.61-.52-2.4-.52-.64,0-1.13.15-1.47.46-.35.31-.56.7-.56,1.18,0,.74.53,1.38,1.5,1.92.88.48,2.67,1.5,2.67,1.5.97.69,1.46,1.43,1.46,2.64"/>
      <path class="cls-2" d="M51.18,33.5h.33v-1.27h.43v-.26h-1.21v.26h.45v1.27ZM53.69,33.5h.31v-1.53h-.47l-.38,1.04-.41-1.04h-.45v1.53h.29v-1.16h.02l.43,1.16h.22l.43-1.16v1.16"/>
      <path class="cls-1" d="M33.2,0c-.53,0-.99.19-1.22.77-.41.98.6,1.95.95,2.44.26.35.59.74.77,1.13.11.26.14.53.24.8.24.66.47,1.4.78,2.02.16.32.35.65.56.93.12.17.33.24.38.51-.21.3-.23.75-.35,1.13-.54,1.7-.33,3.82.44,5.07.24.38.81,1.21,1.58.89.68-.27.53-1.13.72-1.88.04-.18.01-.3.1-.42v.03c.21.42.42.83.62,1.25.47.74,1.28,1.51,1.96,2.02.36.27.65.74,1.1.91v-.05h-.03c-.09-.14-.23-.2-.35-.3-.27-.27-.57-.6-.78-.91-.63-.84-1.19-1.78-1.68-2.74-.24-.47-.45-.98-.65-1.45-.09-.18-.09-.45-.24-.54-.23.33-.56.62-.72,1.02-.29.65-.32,1.45-.42,2.28-.06.02-.03,0-.06.03-.48-.12-.65-.62-.83-1.04-.45-1.07-.53-2.79-.14-4.03.1-.32.56-1.31.38-1.61-.09-.29-.39-.45-.56-.68-.2-.29-.41-.65-.54-.97-.36-.84-.54-1.78-.93-2.62-.18-.39-.5-.8-.75-1.16-.29-.41-.6-.69-.83-1.18-.07-.17-.18-.44-.06-.62.03-.12.09-.17.21-.2.19-.17.75.04.95.14.56.23,1.02.44,1.49.75.21.15.44.44.71.51h.32c.48.1,1.02.03,1.47.17.8.26,1.52.63,2.17,1.04,1.97,1.25,3.59,3.03,4.69,5.16.18.35.26.66.42,1.02.32.74.71,1.49,1.02,2.22.32.71.62,1.43,1.07,2.02.22.32,1.13.48,1.53.65.3.14.77.26,1.04.42.51.32,1.02.68,1.5,1.03.24.18.99.56,1.04.86h0c-1.2-.03-2.14.09-2.92.42-.23.09-.59.09-.62.38.12.12.14.32.24.48.18.3.5.71.78.92.32.24.63.48.96.69.59.36,1.25.57,1.82.94.33.21.66.48.99.71.16.12.27.32.48.39v-.05c-.11-.14-.14-.33-.24-.48-.15-.15-.3-.29-.45-.44-.44-.59-.98-1.1-1.56-1.52-.48-.33-1.54-.79-1.73-1.34,0,0-.02-.02-.03-.03.33-.03.72-.15,1.04-.24.51-.14.98-.1,1.5-.24.24-.06.48-.14.72-.21v-.14c-.27-.27-.47-.63-.75-.89-.77-.66-1.61-1.31-2.48-1.86-.47-.3-1.07-.5-1.57-.75-.18-.09-.48-.14-.59-.29-.27-.33-.42-.77-.62-1.16-.44-.83-.86-1.75-1.23-2.62-.27-.59-.44-1.18-.77-1.72-1.55-2.56-3.23-4.12-5.82-5.64-.56-.32-1.22-.45-1.92-.62-.38-.02-.75-.05-1.13-.06-.24-.11-.48-.39-.69-.53-.54-.34-1.6-.93-2.48-.94h0ZM36.91,3.73c-.26,0-.44.03-.62.08v.03h.03c.12.24.33.41.48.62.12.24.23.48.35.72.01-.01.03-.03.03-.03.21-.15.32-.39.32-.75-.09-.11-.11-.21-.18-.32-.09-.15-.29-.23-.41-.35h0Z"/>
    </g>
  </g>
</svg>