<?xml version="1.0" encoding="UTF-8"?>
<svg id="Layer_2" data-name="Layer 2" xmlns="http://www.w3.org/2000/svg" viewBox="0 0 46.990181112 29.7201118722">
  <defs>
    <style>
      .cls-1 {
        fill: #c74634;
      }
    </style>
  </defs>
  <g id="Layer_1-2" data-name="Layer 1">
    <path class="cls-1" d="M32.5155983221.0051002755H15.2455787909C7.0414772284-.2077903495.2179909002,6.2704811348.0051002752,14.4746437325c-.212890625,8.2042236328,6.2653808594,15.0275878906,14.4696044922,15.2404785156.2569580078.006652832.5140380859.006652832.7708740234,0h17.2700195312c8.2042236328-.212890625,14.6823730469-7.0362548828,14.4694824219-15.2404785156C46.780002619,6.5698585763,40.4203834784.2102394356,32.5155983221.0051002755ZM32.7458229315,24.4851417794c-.2066650391.006652832-.4135742188.006652832-.6201171875,0H15.625705744c-5.3103027344-.1713256836-9.4763183594-4.6149291992-9.3049316406-9.9251708984.1635742188-5.0696411133,4.2351074219-9.1413574219,9.3049316406-9.3048706055h16.5c5.3100585938-.1712646484,9.7537841797,3.9946899414,9.9250488281,9.3048706055.1712646484,5.3102416992-3.9946289062,9.7538452148-9.3049316406,9.9251708984Z"/>
  </g>
</svg>