<?xml version="1.0" encoding="UTF-8"?>
<svg id="Layer_2" data-name="Layer 2" xmlns="http://www.w3.org/2000/svg" viewBox="0 0 56.38 58.14">
  <defs>
    <style>
      .cls-1 {
        stroke: #000;
        stroke-width: 4.88px;
      }

      .cls-2 {
        stroke-width: .54px;
      }

      .cls-2, .cls-3 {
        fill: #fff;
      }

      .cls-2, .cls-3, .cls-4, .cls-5 {
        stroke: #fff;
      }

      .cls-3 {
        stroke-width: .27px;
      }

      .cls-4 {
        stroke-linejoin: round;
      }

      .cls-4, .cls-5 {
        fill: none;
        stroke-linecap: round;
        stroke-width: 1.63px;
      }

      .cls-5 {
        stroke-linejoin: bevel;
      }

      .cls-6 {
        fill: #336791;
      }
    </style>
  </defs>
  <g id="Layer_1-2" data-name="Layer 1">
    <g id="Layer_3">
      <path class="cls-1" d="M42.12,42.32c.37-3.08.26-3.53,2.55-3.03l.58.05c1.76.08,4.07-.28,5.43-.91,2.92-1.35,4.65-3.62,1.77-3.02-6.57,1.35-7.02-.87-7.02-.87,6.93-10.29,9.83-23.34,7.33-26.54C45.95-.72,34.14,3.4,33.94,3.51h-.06c-1.3-.26-2.75-.42-4.38-.44-2.97-.05-5.23.78-6.94,2.08,0,0-21.07-8.68-20.09,10.92.21,4.17,5.98,31.54,12.85,23.27,2.51-3.02,4.94-5.58,4.94-5.58,1.21.8,2.65,1.21,4.17,1.06l.12-.1c-.04.38-.02.74.05,1.18-1.77,1.98-1.25,2.33-4.79,3.06-3.58.74-1.48,2.05-.1,2.4,1.67.42,5.52,1.01,8.13-2.64l-.1.42c.7.56.65,4,.75,6.45.1,2.46.26,4.75.76,6.11.5,1.35,1.09,4.84,5.75,3.84,3.89-.83,6.87-2.03,7.14-13.2"/>
      <path class="cls-6" d="M52.46,35.4c-6.57,1.35-7.02-.87-7.02-.87,6.93-10.29,9.83-23.34,7.33-26.54C45.95-.72,34.14,3.4,33.94,3.51h-.06c-1.3-.26-2.75-.42-4.38-.44-2.97-.05-5.22.78-6.93,2.08,0,0-21.07-8.68-20.09,10.92.21,4.17,5.98,31.54,12.85,23.28,2.51-3.02,4.94-5.58,4.94-5.58,1.21.8,2.65,1.21,4.16,1.06l.12-.1c-.04.38-.02.74.05,1.18-1.77,1.98-1.25,2.33-4.79,3.06-3.58.74-1.48,2.05-.1,2.4,1.67.42,5.52,1.01,8.13-2.64l-.1.42c.69.56,1.18,3.62,1.1,6.39-.08,2.77-.14,4.68.41,6.17.55,1.49,1.09,4.84,5.75,3.84,3.89-.83,5.91-2.99,6.19-6.6.2-2.56.65-2.18.68-4.47l.36-1.08c.42-3.47.07-4.59,2.46-4.07l.58.05c1.76.08,4.07-.28,5.43-.91,2.92-1.35,4.65-3.62,1.77-3.02h0Z"/>
      <path class="cls-4" d="M28.11,37.39c-.18,6.46.05,12.97.68,14.55.63,1.58,1.99,4.66,6.64,3.66,3.89-.83,5.31-2.45,5.92-6.01.45-2.62,1.32-9.9,1.44-11.39"/>
      <path class="cls-4" d="M22.53,4.99S1.45-3.62,2.43,15.97c.21,4.17,5.98,31.54,12.85,23.28,2.51-3.02,4.79-5.4,4.79-5.4"/>
      <path class="cls-4" d="M33.92,3.42c-.73.23,11.73-4.55,18.81,4.49,2.5,3.2-.4,16.25-7.33,26.54"/>
      <path class="cls-5" d="M45.4,34.45s.45,2.22,7.02.87c2.88-.59,1.15,1.67-1.77,3.02-2.39,1.11-7.76,1.4-7.85-.14-.23-3.96,2.83-2.76,2.61-3.75-.2-.89-1.56-1.77-2.47-3.96-.79-1.91-10.81-16.56,2.78-14.38.5-.1-3.54-12.92-16.26-13.13-12.71-.21-12.29,15.63-12.29,15.63"/>
      <path class="cls-4" d="M24.55,35.81c-1.77,1.98-1.25,2.33-4.79,3.06-3.58.74-1.48,2.05-.1,2.4,1.67.42,5.52,1.01,8.13-2.64.79-1.11,0-2.88-1.09-3.33-.53-.22-1.23-.49-2.14.52h0Z"/>
      <path class="cls-4" d="M24.44,35.77c-.18-1.16.38-2.55.98-4.17.9-2.43,2.99-4.86,1.32-12.58-1.24-5.75-9.58-1.2-9.59-.42,0,.78.38,3.95-.14,7.64-.67,4.82,3.07,8.89,7.37,8.48"/>
      <path class="cls-2" d="M22.45,18.5c-.04.27.49.98,1.17,1.07.68.1,1.27-.46,1.31-.73.04-.27-.49-.56-1.17-.65-.68-.1-1.27.04-1.3.31h0Z"/>
      <path class="cls-3" d="M43.26,17.95c.04.27-.49.98-1.17,1.07-.68.1-1.27-.46-1.31-.73-.04-.27.49-.56,1.17-.65s1.27.04,1.31.31h0Z"/>
      <path class="cls-4" d="M45.71,16.11c.11,2.09-.45,3.51-.52,5.73-.1,3.23,1.54,6.93-.94,10.63"/>
    </g>
  </g>
</svg>