<?xml version="1.0" encoding="UTF-8"?>
<svg id="Layer_2" data-name="Layer 2" xmlns="http://www.w3.org/2000/svg" viewBox="0 0 54 51.45">
  <defs>
    <style>
      .cls-1 {
        fill: #2bb5e9;
      }
    </style>
  </defs>
  <g id="Layer_1-2" data-name="Layer 1">
    <path class="cls-1" d="M54,6.51c0,1.45-.94,2.65-2.57,2.65s-2.57-1.2-2.57-2.65.94-2.65,2.57-2.65,2.57,1.2,2.57,2.65ZM53.49,6.51c0-1.2-.85-2.14-2.05-2.14s-2.05.85-2.05,2.14c0,1.2.85,2.14,2.05,2.14,1.28,0,2.05-.94,2.05-2.14ZM50.4,5.31h1.11c.6,0,1.03.34,1.03.85,0,.34-.17.52-.43.69l.43.6v.09h-.6l-.43-.6h-.52v.6h-.6v-2.23ZM51.52,5.82h-.52v.6h.52c.26,0,.34-.09.34-.26.09-.17-.09-.34-.34-.34ZM17.1,26.62c.09-.34.17-.68.17-1.03,0-.26-.09-.51-.09-.77-.26-.77-.68-1.46-1.45-1.89l-10.96-6.25c-1.54-.85-3.51-.34-4.36,1.2-.86,1.54-.34,3.51,1.2,4.36l6.08,3.51-6.08,3.51c-1.54.85-2.05,2.83-1.2,4.36.85,1.54,2.83,2.06,4.36,1.2l10.87-6.25c.77-.6,1.28-1.2,1.46-1.97ZM20.1,32.53c-.6-.09-1.28.09-1.88.43l-10.87,6.25c-1.54.85-2.05,2.83-1.2,4.36.85,1.54,2.82,2.06,4.36,1.2l6.08-3.51v7.02c0,1.8,1.46,3.17,3.25,3.17s3.17-1.46,3.17-3.17v-12.58c0-1.71-1.28-3.08-2.91-3.17ZM31.23,18.83c.6.09,1.28-.09,1.88-.43l10.87-6.25c1.54-.85,2.05-2.83,1.2-4.36-.85-1.54-2.82-2.06-4.36-1.2l-6.08,3.51V3.17c0-1.8-1.46-3.17-3.25-3.17s-3.25,1.37-3.25,3.17v12.5c0,1.71,1.37,3.08,3,3.17h0ZM7.35,12.16l10.87,6.25c.6.34,1.2.43,1.88.43,1.63-.09,2.99-1.54,2.99-3.17V3.17c0-1.8-1.45-3.17-3.17-3.17-1.8,0-3.25,1.46-3.25,3.17v7.02l-6.08-3.51c-1.54-.85-3.51-.34-4.36,1.2-.94,1.45-.43,3.42,1.11,4.28ZM27.81,25.68c-.01-.22-.1-.44-.26-.6l-1.28-1.28c-.15-.17-.37-.26-.6-.26-.22.01-.44.1-.6.26l-1.28,1.28c-.16.16-.25.38-.26.6,0,.17.09.43.26.6l1.28,1.28c.15.17.37.26.6.26.17,0,.43-.09.6-.26l1.28-1.28c.16-.16.25-.38.26-.6ZM31.4,26.88l-4.54,4.54c-.09.09-.34.26-.52.26h-1.37c-.22,0-.44-.1-.6-.26l-4.54-4.54c-.11-.15-.17-.33-.17-.52v-1.37c0-.17.09-.43.26-.6l4.54-4.54c.16-.16.38-.25.6-.26h1.37c.22,0,.44.1.6.26l4.54,4.54c.17.15.26.37.26.6v1.37c-.17.17-.26.43-.43.52ZM43.99,39.12l-10.87-6.25c-.6-.34-1.28-.43-1.88-.34-1.63.09-3,1.54-3,3.17v12.5c0,1.8,1.46,3.17,3.17,3.17,1.8,0,3.25-1.46,3.25-3.17v-7.02l6.07,3.51c1.54.85,3.51.34,4.37-1.2.94-1.45.43-3.42-1.11-4.36ZM49.72,22.17l-6.08,3.51,6.07,3.51c1.54.85,2.06,2.83,1.2,4.36-.85,1.54-2.82,2.05-4.36,1.2l-10.87-6.25c-.66-.43-1.17-1.06-1.46-1.8-.08-.34-.17-.69-.17-1.03,0-.26.09-.51.09-.77.26-.77.77-1.46,1.45-1.88l10.87-6.25c1.54-.85,3.51-.34,4.36,1.2,1.03,1.37.43,3.34-1.11,4.19"/>
  </g>
</svg>